<svg width="133" height="27" viewBox="0 0 133 27" fill="none" xmlns="http://www.w3.org/2000/svg">
<path d="M41.5166 14.4945C41.5166 15.8861 41.0674 17.0458 40.1727 17.9727C39.2743 18.8993 38.1418 19.3636 36.7781 19.3636C35.4114 19.3636 34.2789 18.8993 33.3831 17.9727C32.4873 17.0454 32.0396 15.8858 32.0396 14.4945V8.38422H33.4699V14.6744C33.4699 15.5788 33.7982 16.3548 34.4624 17.002C35.1229 17.6477 35.8949 17.9731 36.7781 17.9731C37.6612 17.9731 38.4321 17.648 39.0937 17.002C39.7554 16.3548 40.0862 15.5788 40.0862 14.6744V8.38422H41.5166V14.4945Z" fill="#111111"/>
<path d="M54.0729 19.1005H52.6454V12.8397C52.6454 11.9363 52.3146 11.1599 51.653 10.5088C50.9914 9.85767 50.2205 9.53012 49.3359 9.53012C48.4412 9.53012 47.6637 9.85731 47.001 10.5088C46.3394 11.1603 46.0086 11.9363 46.0086 12.8397V19.1005H44.5807V12.9899C44.5807 11.599 45.0313 10.4426 45.9333 9.5218C46.8356 8.60066 47.9703 8.13955 49.3359 8.13955C50.6895 8.13955 51.8184 8.60066 52.7218 9.5218C53.6227 10.4426 54.0729 11.599 54.0729 12.9899V19.1005Z" fill="#111111"/>
<path d="M72.5003 19.1005H71.0146V12.5212C71.0146 11.6931 70.7753 10.9851 70.2987 10.3962C69.8234 9.80737 69.1973 9.51166 68.4187 9.51166C67.6297 9.51166 66.9496 9.76864 66.3796 10.283C65.8074 10.7969 65.5247 11.4372 65.5247 12.2012V19.1009H64.0212V12.2012C64.0212 11.4375 63.7331 10.7969 63.1645 10.283C62.593 9.76864 61.9136 9.51166 61.125 9.51166C60.3461 9.51166 59.7279 9.80375 59.2631 10.3865C58.7988 10.9688 58.5671 11.6815 58.5671 12.5212V19.1005H57.0832V12.6902C57.0832 11.3485 57.465 10.2714 58.2284 9.4552C58.9435 8.69042 59.8824 8.25899 61.0482 8.15728C62.6031 8.03386 63.8428 8.69802 64.7722 10.1512C65.7002 8.69802 66.9391 8.03386 68.4947 8.15728C69.6602 8.25899 70.6052 8.69042 71.3349 9.4552C72.1109 10.2717 72.5003 11.3485 72.5003 12.6902V19.1005Z" fill="#111111"/>
<path d="M86.5432 13.7239V19.1001H85.1139V17.4258C83.9524 18.7578 82.5293 19.3951 80.8448 19.3445C79.3717 19.2934 78.1169 18.7234 77.0814 17.6347C76.0433 16.5434 75.5261 15.2462 75.5261 13.7424C75.5261 12.1759 76.0839 10.832 77.1987 9.70892C78.3141 8.58727 79.649 8.05739 81.2039 8.11964C82.7088 8.17068 83.9854 8.74435 85.039 9.84066C86.0922 10.9373 86.5942 12.232 86.5432 13.7239ZM85.1139 13.6204C85.09 12.4897 84.6875 11.5208 83.909 10.7176C83.129 9.91413 82.1938 9.5113 81.1007 9.5113C79.9581 9.5113 78.983 9.91413 78.181 10.7176C77.3767 11.5208 76.9677 12.4955 76.9551 13.637C76.9308 14.7692 77.3036 15.7576 78.076 16.6064C78.8498 17.454 79.7811 17.9039 80.8752 17.955C82.0541 18.0035 83.0617 17.5923 83.8989 16.7208C84.7346 15.8467 85.1392 14.8133 85.1139 13.6204Z" fill="#111111"/>
<path d="M93.7624 9.60613C93.0986 9.6311 92.5615 9.81316 92.1467 10.1508C91.732 10.4903 91.4518 10.7853 91.302 11.0333C91.0609 11.448 90.944 11.9996 90.944 12.6888V19.1001H89.4394V8.38422H90.7739V9.90798C91.0754 9.32997 91.5184 8.88478 92.1087 8.57207C92.6484 8.28288 93.1982 8.15149 93.7628 8.17755V9.60613H93.7624Z" fill="#111111"/>
<path d="M102.354 15.9057C102.431 16.8699 102.092 17.7078 101.339 18.4143C100.588 19.1237 99.7228 19.4469 98.7456 19.3832C97.8426 19.3202 97.0876 18.9568 96.4791 18.2912C95.8696 17.6271 95.5692 16.8384 95.5692 15.9238H97.0517V16.2832C97.0517 16.6513 97.2544 17.0306 97.654 17.4215C98.0568 17.8156 98.4821 18.0038 98.9338 17.9919C99.5343 17.981 100.011 17.7968 100.362 17.4454C100.674 17.1182 100.84 16.6911 100.85 16.1616C100.863 15.243 100.341 14.6157 99.2881 14.2759L98.0308 13.8763C96.7144 13.4629 96.0253 12.5657 95.9627 11.1864C95.9247 10.3586 96.2044 9.65101 96.8023 9.06032C97.3977 8.47254 98.1194 8.15729 98.962 8.12037C99.6899 8.08381 100.372 8.31799 101.008 8.82506C101.643 9.3325 101.984 9.96264 102.035 10.7155V11.0336H100.531V10.7871C100.531 10.4075 100.372 10.0991 100.054 9.86455C99.7326 9.62929 99.3667 9.5113 98.9519 9.5113C98.5502 9.52469 98.2038 9.66874 97.9084 9.94599C97.6135 10.2232 97.4607 10.57 97.4477 10.9862C97.3977 11.7553 97.8549 12.3026 98.8205 12.6294L100.062 13.0453C101.489 13.5357 102.254 14.4883 102.354 15.9057Z" fill="#111111"/>
<path d="M114.69 19.1005H113.26V12.8581C113.26 11.9562 112.923 11.1755 112.257 10.5175C111.585 9.86093 110.801 9.54279 109.905 9.56812C108.994 9.58188 108.225 9.88373 107.6 10.4795C106.974 11.076 106.66 11.8306 106.66 12.7452V19.1009H105.23V4.60449H106.66V9.90654C107.477 8.84244 108.526 8.27781 109.808 8.21483C111.139 8.15113 112.284 8.59089 113.246 9.52976C114.208 10.4712 114.689 11.6305 114.689 13.0094V19.1005H114.69Z" fill="#111111"/>
<path d="M128.564 13.7239V19.1001H127.134V17.4258C125.976 18.7578 124.551 19.3951 122.866 19.3445C121.393 19.2934 120.138 18.7234 119.103 17.6347C118.064 16.5434 117.547 15.2462 117.547 13.7424C117.547 12.1759 118.105 10.832 119.22 9.70892C120.337 8.58727 121.67 8.05739 123.225 8.11964C124.729 8.17068 126.006 8.74435 127.06 9.84066C128.113 10.9373 128.612 12.232 128.564 13.7239ZM127.134 13.6204C127.109 12.4897 126.708 11.5208 125.93 10.7176C125.149 9.91413 124.215 9.5113 123.12 9.5113C121.978 9.5113 121.003 9.91413 120.199 10.7176C119.397 11.5208 118.987 12.4955 118.975 13.637C118.95 14.7692 119.323 15.7576 120.097 16.6064C120.871 17.454 121.802 17.9039 122.896 17.955C124.077 18.0035 125.085 17.5923 125.92 16.7208C126.757 15.8467 127.16 14.8133 127.134 13.6204Z" fill="#111111"/>
<path d="M132.999 4.60449H131.572V19.1005H132.999V4.60449Z" fill="#111111"/>
<path d="M23.0036 12.2844C22.9884 11.6858 22.9718 11.1204 22.9718 10.5576V0.111328H1.35315L5.54694 2.38249H20.7017V10.5572C20.7017 11.1519 20.7183 11.7592 20.7346 12.3456C20.7947 14.5722 20.8566 16.8745 20.027 18.8008C18.5916 22.1324 15.3215 24.2863 11.7003 24.2863C7.28895 24.2863 3.60513 21.4516 2.53343 17.2325C2.2142 15.9726 2.25619 14.6718 2.30179 13.2924C2.31699 12.806 2.33219 12.3036 2.33219 11.7991V6.38156L0.0621143 5.18064V11.7998C0.0621143 12.2674 0.0454652 12.7517 0.0317115 13.2193C-0.0164263 14.6942 -0.0649261 16.2201 0.333207 17.792C1.66297 23.0344 6.23353 26.5575 11.6999 26.5575C16.2299 26.5575 20.3169 23.8654 22.1111 19.6995C23.1408 17.3146 23.0709 14.7572 23.0036 12.2844Z" fill="#34D399"/>
<path d="M4.80496 15.4575C4.80496 15.501 4.80749 15.5433 4.81256 15.5868C5.05434 17.7312 6.78078 21.7915 11.5855 21.7915C16.4616 21.7915 17.8586 17.6686 17.9173 15.4883C17.9173 15.4782 17.9187 15.4684 17.9187 15.4575V5.49625C17.9187 4.86865 17.4098 4.35941 16.7822 4.35941H9.19745L13.3901 6.6313H15.6476V15.4384C15.6269 15.9009 15.3598 19.5199 11.5859 19.5199C7.83222 19.5199 7.16553 16.0196 7.07504 15.3844V8.89196L4.82667 7.70119C4.81401 7.76995 4.80496 7.84017 4.80496 7.91328V15.4575Z" fill="#34D399"/>
<path d="M4.8303 7.67911C4.82668 7.68635 4.82921 7.69467 4.82667 7.70119L7.07504 8.89196L4.8303 7.67911Z" fill="#34D399"/>
</svg>
