<svg width="151" height="30" viewBox="0 0 151 30" fill="none" xmlns="http://www.w3.org/2000/svg">
    <path d="M47.0954 16.3159C47.0954 17.8946 46.5859 19.2101 45.5709 20.2616C44.5519 21.3126 43.2672 21.8394 41.7201 21.8394C40.1698 21.8394 38.8851 21.3126 37.8689 20.2616C36.8527 19.2097 36.3449 17.8942 36.3449 16.3159V9.38457H37.9675V16.52C37.9675 17.546 38.3399 18.4263 39.0933 19.1604C39.8426 19.8929 40.7183 20.262 41.7201 20.262C42.7219 20.262 43.5965 19.8933 44.347 19.1604C45.0975 18.4263 45.4728 17.546 45.4728 16.52V9.38457H47.0954V16.3159Z"
          fill="#fff"/>
    <path d="M61.3391 21.5409H59.7198V14.4388C59.7198 13.414 59.3445 12.5333 58.594 11.7947C57.8435 11.056 56.9689 10.6845 55.9655 10.6845C54.9505 10.6845 54.0686 11.0556 53.3169 11.7947C52.5663 12.5337 52.1911 13.414 52.1911 14.4388V21.5409H50.5713V14.6092C50.5713 13.0313 51.0825 11.7195 52.1057 10.675C53.1292 9.6301 54.4164 9.10703 55.9655 9.10703C57.501 9.10703 58.7816 9.6301 59.8064 10.675C60.8284 11.7195 61.3391 13.0313 61.3391 14.6092V21.5409Z"
          fill="#fff"/>
    <path d="M82.2428 21.5409H80.5574V14.0775C80.5574 13.1381 80.286 12.335 79.7452 11.667C79.2062 10.999 78.4959 10.6635 77.6127 10.6635C76.7177 10.6635 75.9462 10.955 75.2995 11.5385C74.6504 12.1215 74.3297 12.8478 74.3297 13.7145V21.5413H72.6242V13.7145C72.6242 12.8482 72.2974 12.1215 71.6524 11.5385C71.0041 10.955 70.2334 10.6635 69.3388 10.6635C68.4552 10.6635 67.754 10.9949 67.2268 11.6559C66.7 12.3165 66.4372 13.1249 66.4372 14.0775V21.5409H64.7539V14.2692C64.7539 12.7472 65.187 11.5253 66.0529 10.5995C66.8642 9.73192 67.9293 9.24252 69.2517 9.12714C71.0156 8.98714 72.4218 9.74055 73.4762 11.389C74.5289 9.74055 75.9343 8.98714 77.6989 9.12714C79.021 9.24252 80.093 9.73192 80.9207 10.5995C81.801 11.5257 82.2428 12.7472 82.2428 14.2692V21.5409Z"
          fill="#fff"/>
    <path d="M98.1727 15.4418V21.5405H96.5514V19.6412C95.2338 21.1521 93.6194 21.8751 91.7086 21.8177C90.0376 21.7598 88.6141 21.1131 87.4394 19.8781C86.2619 18.6402 85.6752 17.1687 85.6752 15.4627C85.6752 13.6858 86.3079 12.1613 87.5725 10.8873C88.8379 9.61491 90.3521 9.01382 92.1159 9.08444C93.8231 9.14234 95.2712 9.7931 96.4664 11.0367C97.6612 12.2808 98.2306 13.7494 98.1727 15.4418ZM96.5514 15.3244C96.5243 14.0417 96.0677 12.9426 95.1846 12.0316C94.2998 11.1201 93.2388 10.6631 91.9989 10.6631C90.7027 10.6631 89.5966 11.1201 88.6868 12.0316C87.7745 12.9426 87.3105 14.0483 87.2962 15.3433C87.2686 16.6276 87.6915 17.7488 88.5677 18.7116C89.4455 19.6732 90.5019 20.1836 91.7431 20.2415C93.0804 20.2965 94.2234 19.8301 95.1731 18.8414C96.1211 17.8498 96.5801 16.6776 96.5514 15.3244Z"
          fill="#fff"/>
    <path d="M106.362 10.7707C105.609 10.799 105 11.0055 104.529 11.3886C104.059 11.7737 103.741 12.1083 103.571 12.3896C103.298 12.8601 103.165 13.4858 103.165 14.2676V21.5405H101.458V9.38458H102.972V11.1131C103.314 10.4574 103.817 9.95241 104.486 9.59767C105.098 9.26962 105.722 9.12058 106.363 9.15014V10.7707H106.362Z"
          fill="#fff"/>
    <path d="M116.108 17.9168C116.195 19.0105 115.812 19.961 114.957 20.7625C114.105 21.5672 113.123 21.9339 112.015 21.8616C110.991 21.7901 110.134 21.3779 109.444 20.6229C108.752 19.8695 108.412 18.9748 108.412 17.9373H110.093V18.345C110.093 18.7626 110.323 19.1928 110.777 19.6363C111.234 20.0834 111.716 20.2969 112.228 20.2833C112.91 20.271 113.45 20.062 113.849 19.6634C114.202 19.2922 114.391 18.8077 114.402 18.207C114.416 17.165 113.825 16.4535 112.63 16.0679L111.204 15.6147C109.711 15.1458 108.929 14.128 108.858 12.5633C108.815 11.6243 109.132 10.8216 109.811 10.1515C110.486 9.48476 111.305 9.12715 112.26 9.08527C113.086 9.0438 113.86 9.30944 114.581 9.88466C115.301 10.4603 115.688 11.1751 115.746 12.0291V12.39H114.04V12.1104C114.04 11.6797 113.86 11.3299 113.499 11.0638C113.135 10.797 112.719 10.6631 112.249 10.6631C111.793 10.6783 111.4 10.8417 111.065 11.1562C110.731 11.4707 110.557 11.864 110.543 12.3362C110.486 13.2087 111.004 13.8295 112.1 14.2002L113.508 14.672C115.127 15.2283 115.994 16.309 116.108 17.9168Z"
          fill="#fff"/>
    <path d="M130.102 21.5409H128.479V14.4597C128.479 13.4366 128.098 12.5509 127.342 11.8045C126.58 11.0597 125.69 10.6988 124.674 10.7276C123.64 10.7432 122.769 11.0856 122.059 11.7614C121.349 12.438 120.993 13.2941 120.993 14.3316V21.5413H119.37V5.09692H120.993V11.1115C121.92 9.90437 123.11 9.26387 124.564 9.19243C126.074 9.12017 127.373 9.61901 128.464 10.6841C129.555 11.752 130.101 13.067 130.101 14.6313V21.5409H130.102Z"
          fill="#fff"/>
    <path d="M145.841 15.4418V21.5405H144.218V19.6412C142.905 21.1521 141.288 21.8751 139.377 21.8177C137.706 21.7598 136.282 21.1131 135.108 19.8781C133.93 18.6402 133.343 17.1687 133.343 15.4627C133.343 13.6858 133.976 12.1613 135.24 10.8873C136.507 9.61491 138.02 9.01382 139.784 9.08444C141.49 9.14234 142.939 9.7931 144.134 11.0367C145.329 12.2808 145.895 13.7494 145.841 15.4418ZM144.218 15.3244C144.189 14.0417 143.735 12.9426 142.852 12.0316C141.966 11.1201 140.906 10.6631 139.665 10.6631C138.369 10.6631 137.263 11.1201 136.351 12.0316C135.442 12.9426 134.977 14.0483 134.963 15.3433C134.934 16.6276 135.358 17.7488 136.236 18.7116C137.113 19.6732 138.17 20.1836 139.411 20.2415C140.751 20.2965 141.894 19.8301 142.841 18.8414C143.791 17.8498 144.247 16.6776 144.218 15.3244Z"
          fill="#fff"/>
    <path d="M150.872 5.09692H149.253V21.5409H150.872V5.09692Z" fill="#fff"/>
    <path d="M26.0949 13.8089C26.0776 13.1298 26.0587 12.4885 26.0587 11.8501V0H1.53498L6.29234 2.57636H23.4836V11.8496C23.4836 12.5242 23.5025 13.2132 23.5209 13.8783C23.5891 16.4042 23.6593 19.0158 22.7183 21.2009C21.0899 24.9803 17.3804 27.4236 13.2725 27.4236C8.26844 27.4236 4.08959 24.208 2.87388 19.4219C2.51175 17.9927 2.55937 16.5171 2.61111 14.9524C2.62835 14.4006 2.6456 13.8307 2.6456 13.2583V7.11283L0.0704612 5.75053V13.2592C0.0704612 13.7896 0.0515749 14.339 0.035973 14.8694C-0.0186337 16.5425 -0.0736509 18.2735 0.377983 20.0567C1.88644 26.0034 7.0712 30 13.2721 30C18.4109 30 23.0471 26.9461 25.0824 22.2204C26.2505 19.5151 26.1712 16.614 26.0949 13.8089Z"
          fill="#fff"/>
    <path d="M5.45065 17.4084C5.45065 17.4577 5.45353 17.5058 5.45928 17.555C5.73354 19.9877 7.69199 24.5935 13.1424 24.5935C18.6737 24.5935 20.2585 19.9167 20.325 17.4433C20.325 17.4318 20.3267 17.4208 20.3267 17.4084V6.10856C20.3267 5.39662 19.7494 4.81894 19.0375 4.81894H10.4334L15.1895 7.39612H17.7503V17.3867C17.7269 17.9114 17.4239 22.0168 13.1428 22.0168C8.88472 22.0168 8.12844 18.0461 8.02579 17.3255V9.96058L5.47529 8.60979C5.46092 8.6878 5.45065 8.76745 5.45065 8.85039V17.4084Z"
          fill="#fff"/>
    <path d="M5.47939 8.58474C5.47529 8.59295 5.47816 8.6024 5.47529 8.60979L8.02579 9.96058L5.47939 8.58474Z"
          fill="#34D399"/>
</svg>
