<svg width="420" height="126" viewBox="0 0 420 126" fill="none" xmlns="http://www.w3.org/2000/svg">
<path d="M140.706 65.7435C140.706 69.5885 139.465 72.7925 136.993 75.3535C134.511 77.9135 131.382 79.1965 127.614 79.1965C123.838 79.1965 120.709 77.9135 118.234 75.3535C115.759 72.7915 114.522 69.5875 114.522 65.7435V48.8615H118.474V66.2405C118.474 68.7395 119.381 70.8835 121.216 72.6715C123.041 74.4555 125.174 75.3545 127.614 75.3545C130.054 75.3545 132.184 74.4565 134.012 72.6715C135.84 70.8835 136.754 68.7395 136.754 66.2405V48.8615H140.706V65.7435Z" fill="white"/>
<path d="M175.398 78.4695H171.454V61.1715C171.454 58.6755 170.54 56.5305 168.712 54.7315C166.884 52.9325 164.754 52.0275 162.31 52.0275C159.838 52.0275 157.69 52.9315 155.859 54.7315C154.031 56.5315 153.117 58.6755 153.117 61.1715V78.4695H149.172V61.5865C149.172 57.7435 150.417 54.5485 152.909 52.0045C155.402 49.4595 158.537 48.1855 162.31 48.1855C166.05 48.1855 169.169 49.4595 171.665 52.0045C174.154 54.5485 175.398 57.7435 175.398 61.5865V78.4695Z" fill="white"/>
<path d="M226.311 78.4695H222.206V60.2915C222.206 58.0035 221.545 56.0475 220.228 54.4205C218.915 52.7935 217.185 51.9765 215.034 51.9765C212.854 51.9765 210.975 52.6865 209.4 54.1075C207.819 55.5275 207.038 57.2965 207.038 59.4075V78.4705H202.884V59.4075C202.884 57.2975 202.088 55.5275 200.517 54.1075C198.938 52.6865 197.061 51.9765 194.882 51.9765C192.73 51.9765 191.022 52.7835 189.738 54.3935C188.455 56.0025 187.815 57.9715 187.815 60.2915V78.4695H183.715V60.7585C183.715 57.0515 184.77 54.0755 186.879 51.8205C188.855 49.7075 191.449 48.5155 194.67 48.2345C198.966 47.8935 202.391 49.7285 204.959 53.7435C207.523 49.7285 210.946 47.8935 215.244 48.2345C218.464 48.5155 221.075 49.7075 223.091 51.8205C225.235 54.0765 226.311 57.0515 226.311 60.7585V78.4695Z" fill="white"/>
<path d="M265.11 63.6145V78.4685H261.161V73.8425C257.952 77.5225 254.02 79.2835 249.366 79.1435C245.296 79.0025 241.829 77.4275 238.968 74.4195C236.1 71.4045 234.671 67.8205 234.671 63.6655C234.671 59.3375 236.212 55.6245 239.292 52.5215C242.374 49.4225 246.062 47.9585 250.358 48.1305C254.516 48.2715 258.043 49.8565 260.954 52.8855C263.864 55.9155 265.251 59.4925 265.11 63.6145ZM261.161 63.3285C261.095 60.2045 259.983 57.5275 257.832 55.3085C255.677 53.0885 253.093 51.9755 250.073 51.9755C246.916 51.9755 244.222 53.0885 242.006 55.3085C239.784 57.5275 238.654 60.2205 238.619 63.3745C238.552 66.5025 239.582 69.2335 241.716 71.5785C243.854 73.9205 246.427 75.1635 249.45 75.3045C252.707 75.4385 255.491 74.3025 257.804 71.8945C260.113 69.4795 261.231 66.6245 261.161 63.3285Z" fill="white"/>
<path d="M285.056 52.2375C283.222 52.3065 281.738 52.8095 280.592 53.7425C279.446 54.6805 278.672 55.4955 278.258 56.1805C277.592 57.3265 277.269 58.8505 277.269 60.7545V78.4685H273.112V48.8615H276.799V53.0715C277.632 51.4745 278.856 50.2445 280.487 49.3805C281.978 48.5815 283.497 48.2185 285.057 48.2905V52.2375H285.056Z" fill="white"/>
<path d="M308.794 69.6425C309.005 72.3065 308.071 74.6215 305.99 76.5735C303.915 78.5335 301.524 79.4265 298.824 79.2505C296.329 79.0765 294.243 78.0725 292.562 76.2335C290.878 74.3985 290.048 72.2195 290.048 69.6925H294.144V70.6855C294.144 71.7025 294.704 72.7505 295.808 73.8305C296.921 74.9195 298.096 75.4395 299.344 75.4065C301.003 75.3765 302.319 74.8675 303.291 73.8965C304.152 72.9925 304.611 71.8125 304.639 70.3495C304.673 67.8115 303.233 66.0785 300.323 65.1395L296.849 64.0355C293.212 62.8935 291.308 60.4145 291.135 56.6035C291.03 54.3165 291.803 52.3615 293.455 50.7295C295.1 49.1055 297.094 48.2345 299.422 48.1325C301.433 48.0315 303.318 48.6785 305.075 50.0795C306.828 51.4815 307.77 53.2225 307.911 55.3025V56.1815H303.756V55.5005C303.756 54.4515 303.318 53.5995 302.438 52.9515C301.551 52.3015 300.54 51.9755 299.394 51.9755C298.284 52.0125 297.327 52.4105 296.511 53.1765C295.696 53.9425 295.274 54.9005 295.238 56.0505C295.1 58.1755 296.363 59.6875 299.031 60.5905L302.46 61.7395C306.403 63.0945 308.516 65.7265 308.794 69.6425Z" fill="white"/>
<path d="M342.876 78.4695H338.925V61.2225C338.925 58.7305 337.996 56.5735 336.154 54.7555C334.298 52.9415 332.132 52.0625 329.657 52.1325C327.139 52.1705 325.016 53.0045 323.287 54.6505C321.558 56.2985 320.691 58.3835 320.691 60.9105V78.4705H316.739V38.4185H320.691V53.0675C322.949 50.1275 325.846 48.5675 329.389 48.3935C333.066 48.2175 336.23 49.4325 338.887 52.0265C341.545 54.6275 342.875 57.8305 342.875 61.6405V78.4695H342.876Z" fill="white"/>
<path d="M381.21 63.6145V78.4685H377.259V73.8425C374.059 77.5225 370.121 79.2835 365.466 79.1435C361.397 79.0025 357.929 77.4275 355.069 74.4195C352.2 71.4045 350.771 67.8205 350.771 63.6655C350.771 59.3375 352.312 55.6245 355.392 52.5215C358.478 49.4225 362.162 47.9585 366.459 48.1305C370.613 48.2715 374.143 49.8565 377.054 52.8855C379.964 55.9155 381.342 59.4925 381.21 63.6145ZM377.258 63.3285C377.188 60.2045 376.082 57.5275 373.931 55.3085C371.774 53.0885 369.192 51.9755 366.168 51.9755C363.013 51.9755 360.318 53.0885 358.097 55.3085C355.883 57.5275 354.75 60.2205 354.716 63.3745C354.646 66.5025 355.678 69.2335 357.816 71.5785C359.954 73.9205 362.527 75.1635 365.55 75.3045C368.813 75.4385 371.597 74.3025 373.903 71.8945C376.217 69.4795 377.329 66.6245 377.258 63.3285Z" fill="white"/>
<path d="M393.464 38.4185H389.521V78.4695H393.464V38.4185Z" fill="white"/>
<path d="M89.5566 59.6374C89.5146 57.9834 89.4686 56.4214 89.4686 54.8664V26.0044H29.7386L41.3256 32.2794H83.1966V54.8654C83.1966 56.5084 83.2426 58.1864 83.2876 59.8064C83.4536 65.9584 83.6246 72.3194 81.3326 77.6414C77.3666 86.8464 68.3316 92.7974 58.3266 92.7974C46.1386 92.7974 35.9606 84.9654 32.9996 73.3084C32.1176 69.8274 32.2336 66.2334 32.3596 62.4224C32.4016 61.0784 32.4436 59.6904 32.4436 58.2964V43.3284L26.1716 40.0104V58.2984C26.1716 59.5904 26.1256 60.9284 26.0876 62.2204C25.9546 66.2954 25.8206 70.5114 26.9206 74.8544C30.5946 89.3384 43.2226 99.0724 58.3256 99.0724C70.8416 99.0724 82.1336 91.6344 87.0906 80.1244C89.9356 73.5354 89.7426 66.4694 89.5566 59.6374Z" fill="white"/>
<path d="M39.2756 68.4044C39.2756 68.5244 39.2826 68.6414 39.2966 68.7614C39.9646 74.6864 44.7346 85.9044 58.0096 85.9044C71.4816 85.9044 75.3416 74.5134 75.5036 68.4894C75.5036 68.4614 75.5076 68.4344 75.5076 68.4044V40.8824C75.5076 39.1484 74.1016 37.7414 72.3676 37.7414H51.4116L62.9956 44.0184H69.2326V68.3514C69.1756 69.6294 68.4376 79.6284 58.0106 79.6284C47.6396 79.6284 45.7976 69.9574 45.5476 68.2024V50.2644L39.3356 46.9744C39.3006 47.1644 39.2756 47.3584 39.2756 47.5604V68.4044Z" fill="white"/>
<path d="M39.3456 46.9134C39.3356 46.9334 39.3426 46.9564 39.3356 46.9744L45.5476 50.2644L39.3456 46.9134Z" fill="white"/>
</svg>
